<svg xmlns="http://www.w3.org/2000/svg" viewBox="0 0 24 24" width="24" height="24" preserveAspectRatio="xMidYMid meet" style="width: 100%; height: 100%; transform: translate3d(0px, 0px, 0px);"><defs><clipPath id="__lottie_element_198"><rect width="24" height="24" x="0" y="0"></rect></clipPath><clipPath id="__lottie_element_200"><path d="M0,0 L360,0 L360,360 L0,360z"></path></clipPath></defs><g clip-path="url(#__lottie_element_198)"><g clip-path="url(#__lottie_element_200)" transform="matrix(0.05999999865889549,0,0,0.05999999865889549,1.3249998092651367,1.1999998092651367)" opacity="1" style="display: block;"><g transform="matrix(1,0,0,1,0,0)" opacity="1" style="display: block;"><g opacity="1" transform="matrix(1,0,0,1,183.67799377441406,329.7909851074219)"><path fill="rgb(123,168,74)" fill-opacity="1" d=" M-43.65599822998047,-16.208999633789062 C-43.65599822998047,-16.208999633789062 -43.65599822998047,1.8020000457763672 -49.893001556396484,7.804999828338623 C-56.12900161743164,13.809000015258789 -61.11800003051758,16.209999084472656 -48.64500045776367,16.209999084472656 C-48.64500045776367,16.209999084472656 48.64500045776367,16.209999084472656 48.64500045776367,16.209999084472656 C61.11800003051758,16.209999084472656 52.08399963378906,13.744999885559082 46.1510009765625,6.604000091552734 C41.1609992980957,0.6010000109672546 42.40800094604492,-16.208999633789062 42.40800094604492,-16.208999633789062 C42.40800094604492,-16.208999633789062 -43.65599822998047,-16.208999633789062 -43.65599822998047,-16.208999633789062z"></path></g><g opacity="1" transform="matrix(1,0,0,1,181.8070068359375,51.2239990234375)"><path fill="rgb(123,168,74)" fill-opacity="1" d=" M-50.51599884033203,-6.604000091552734 C-50.51599884033203,-6.604000091552734 -50.51599884033203,4.203000068664551 -50.51599884033203,4.203000068664551 C-50.51599884033203,4.203000068664551 -35.54800033569336,6.604000091552734 -0.6230000257492065,6.604000091552734 C34.30099868774414,6.604000091552734 50.51599884033203,4.203000068664551 50.51599884033203,4.203000068664551 C50.51599884033203,4.203000068664551 50.51599884033203,-6.604000091552734 50.51599884033203,-6.604000091552734 C50.51599884033203,-6.604000091552734 -50.51599884033203,-6.604000091552734 -50.51599884033203,-6.604000091552734z"></path></g><g opacity="1" transform="matrix(1,0,0,1,181.1840057373047,30.211999893188477)"><path fill="rgb(151,193,111)" fill-opacity="1" d=" M-58.624000549316406,16.809999465942383 C-68.60299682617188,12.006999969482422 -44.90299987792969,-19.211000442504883 -1.246999979019165,-19.211000442504883 C42.409000396728516,-19.211000442504883 68.60199737548828,12.006999969482422 58.624000549316406,16.809999465942383 C53.63399887084961,19.211000442504883 26.81800079345703,16.809999465942383 0.0010000000474974513,16.809999465942383 C-26.816999435424805,16.809999465942383 -53.6349983215332,19.211000442504883 -58.624000549316406,16.809999465942383z"></path></g><g opacity="1" transform="matrix(1,0,0,1,232.51100158691406,191.10800170898438)"><path fill="rgb(151,193,111)" fill-opacity="1" d=" M-51.32699966430664,-136.8820037841797 C-18.89699935913086,-136.8820037841797 9.791000366210938,-136.8820037841797 13.532999992370605,-133.2790069580078 C17.275999069213867,-129.677001953125 7.296000003814697,-122.4729995727539 2.306999921798706,-117.66999816894531 C-2.681999921798706,-112.86699676513672 -8.253999710083008,-94.62899780273438 -4.51200008392334,-74.21700286865234 C-0.7689999938011169,-53.80400085449219 49.487998962402344,-14.532999992370605 50.487998962402344,46.11399841308594 C51.32699966430664,97.00199890136719 26.006000518798828,136.8820037841797 -51.32699966430664,136.8820037841797 C-51.32699966430664,136.8820037841797 -51.32699966430664,-136.8820037841797 -51.32699966430664,-136.8820037841797z"></path></g><g opacity="1" transform="matrix(1,0,0,1,131.33900451660156,191.10800170898438)"><path fill="rgb(151,193,111)" fill-opacity="1" d=" M52.3390007019043,-136.8820037841797 C19.909000396728516,-136.8820037841797 -8.779000282287598,-136.8820037841797 -12.520999908447266,-133.2790069580078 C-16.26300048828125,-129.677001953125 -6.283999919891357,-122.4729995727539 -1.2949999570846558,-117.66999816894531 C3.694000005722046,-112.86699676513672 9.402999877929688,-96.55400085449219 5.660999774932861,-76.14199829101562 C1.9199999570846558,-55.72999954223633 -52.3390007019043,-15.494999885559082 -52.3390007019043,46.827999114990234 C-52.3390007019043,103.87200164794922 -24.993999481201172,136.8820037841797 52.3390007019043,136.8820037841797 C52.3390007019043,136.8820037841797 52.3390007019043,-136.8820037841797 52.3390007019043,-136.8820037841797z"></path></g><g opacity="1" transform="matrix(1,0,0,1,149,221.33799743652344)"><path fill="rgb(255,255,255)" fill-opacity="1" d=" M-2,-87.12000274658203 C-2,-87.12000274658203 -6,-78.45600128173828 1,-72.68000030517578 C8,-66.90399932861328 17,-68.8290023803711 22,-65.94200134277344 C27,-63.05400085449219 28,-57.27799987792969 28,-57.27799987792969 C28,-57.27799987792969 30,-45.72600173950195 30,-37.0629997253418 C30,-28.39900016784668 27,-22.621999740600586 27,-22.621999740600586 C27,-22.621999740600586 24,-31.28700065612793 18,-36.099998474121094 C12,-40.91299819946289 0,-38.025001525878906 -6,-41.875999450683594 C-12,-45.72600173950195 -13,-49.57699966430664 -13,-49.57699966430664 C-13,-49.57699966430664 -17.802000045776367,-34.71699905395508 -11,-23.584999084472656 C-1,-7.21999979019165 22,-15.883999824523926 22,-15.883999824523926 C22,-15.883999824523926 28,-5.295000076293945 26,6.25600004196167 C24,17.808000564575195 20,23.584999084472656 20,23.584999084472656 C20,23.584999084472656 21,12.994999885559082 8,5.294000148773193 C-5,-2.4079999923706055 -19,2.4059998989105225 -25,2.4059998989105225 C-31,2.4059998989105225 -35,-0.4819999933242798 -35,-0.4819999933242798 C-35,-0.4819999933242798 -31,7.218999862670898 -30,13.958000183105469 C-29,20.695999145507812 -21,38.02399826049805 -6,38.02399826049805 C9,38.02399826049805 18,33.21099853515625 18,33.21099853515625 C18,33.21099853515625 16,48.612998962402344 12,49.57600021362305 C8,50.53799819946289 6.683000087738037,48.94200134277344 4,47.650001525878906 C0,45.724998474121094 -4,50.53799819946289 -3,54.38800048828125 C-2,58.23899841308594 4,61.12799835205078 4,61.12799835205078 C4,61.12799835205078 1,53.42599868774414 4,53.42599868774414 C7,53.42599868774414 16,52.4630012512207 16,61.12799835205078 C16,61.12799835205078 16,91.93199920654297 16,91.93199920654297 C16,91.93199920654297 30,91.93199920654297 30,91.93199920654297 C30,91.93199920654297 35,-65.94200134277344 35,-74.6050033569336 C35,-83.26899719238281 21,-91.93299865722656 12,-85.19499969482422 C5.210000038146973,-80.11100006103516 -2,-87.12000274658203 -2,-87.12000274658203z"></path></g><g opacity="1" transform="matrix(1,0,0,1,214.5,221.33799743652344)"><path fill="rgb(255,255,255)" fill-opacity="1" d=" M2.5,-87.12000274658203 C2.5,-87.12000274658203 6.5,-78.45600128173828 -0.5,-72.68000030517578 C-7.5,-66.90399932861328 -16.5,-68.8290023803711 -21.5,-65.94200134277344 C-26.5,-63.05400085449219 -27.5,-57.27799987792969 -27.5,-57.27799987792969 C-27.5,-57.27799987792969 -29.5,-45.72600173950195 -29.5,-37.0629997253418 C-29.5,-28.39900016784668 -26.5,-22.621999740600586 -26.5,-22.621999740600586 C-26.5,-22.621999740600586 -23.5,-31.28700065612793 -17.5,-36.099998474121094 C-11.5,-40.91299819946289 0.5,-38.025001525878906 6.5,-41.875999450683594 C12.5,-45.72600173950195 13.5,-49.57699966430664 13.5,-49.57699966430664 C13.5,-49.57699966430664 18.30299949645996,-34.71699905395508 11.5,-23.584999084472656 C1.5,-7.21999979019165 -21.5,-15.883999824523926 -21.5,-15.883999824523926 C-21.5,-15.883999824523926 -27.5,-5.295000076293945 -25.5,6.25600004196167 C-23.5,17.808000564575195 -19.5,23.584999084472656 -19.5,23.584999084472656 C-19.5,23.584999084472656 -20.5,12.994999885559082 -7.5,5.294000148773193 C5.5,-2.4079999923706055 19.5,2.4059998989105225 25.5,2.4059998989105225 C31.5,2.4059998989105225 35.5,-0.4819999933242798 35.5,-0.4819999933242798 C35.5,-0.4819999933242798 31.5,7.218999862670898 30.5,13.958000183105469 C29.5,20.695999145507812 21.5,38.02399826049805 6.5,38.02399826049805 C-8.5,38.02399826049805 -17.5,33.21099853515625 -17.5,33.21099853515625 C-17.5,33.21099853515625 -15.5,48.612998962402344 -11.5,49.57600021362305 C-7.5,50.53799819946289 -6.184000015258789,48.94200134277344 -3.5,47.650001525878906 C0.5,45.724998474121094 4.5,50.53799819946289 3.5,54.38800048828125 C2.5,58.23899841308594 -3.5,61.12799835205078 -3.5,61.12799835205078 C-3.5,61.12799835205078 -0.5,53.42599868774414 -3.5,53.42599868774414 C-6.5,53.42599868774414 -15.5,52.4630012512207 -15.5,61.12799835205078 C-15.5,61.12799835205078 -15.5,91.93199920654297 -15.5,91.93199920654297 C-15.5,91.93199920654297 -35.5,91.93199920654297 -35.5,91.93199920654297 C-35.5,91.93199920654297 -33.21200180053711,7.236999988555908 -33.5,-41.875999450683594 C-33.606998443603516,-60.14799880981445 -34.5,-72.25599670410156 -34.5,-74.6050033569336 C-34.5,-83.26899719238281 -20.5,-91.93299865722656 -11.5,-85.19499969482422 C-4.710000038146973,-80.11100006103516 2.5,-87.12000274658203 2.5,-87.12000274658203z"></path></g></g></g></g></svg>